PathFileType	4	(X/Y/Z)	C:/Users/opensim2020/Desktop/walking_exp_matlab/subject01_walking11_straight_01.trc																																																																																																																																		
DataRate	CameraRate	NumFrames	NumMarkers	Units	OrigDataRate	OrigDataStartFrame	OrigNumFrames																																																																																																																														
100	100	7	44	mm	100	1050	374																																																																																																																														
Frame#	Time	LFHD			RFHD			LBHD			RBHD			C7			T10			CLAV			STRN			RBAK			LSHO			LUPA			LELB			LFRM			LWRA			LWRB			LFIN			RSHO			RUPA			RELB			RFRM			RWRA			RWRB			RFIN			LASI			RASI			LPSI			RPSI			LTHI			LKNE			LTIB			LANK			LHEE			LTOE			RTHI			RKNE			RTIB			RANK			RHEE			RTOE			*39			*40			*41			*42			*43		
		X1	Y1	Z1	X2	Y2	Z2	X3	Y3	Z3	X4	Y4	Z4	X5	Y5	Z5	X6	Y6	Z6	X7	Y7	Z7	X8	Y8	Z8	X9	Y9	Z9	X10	Y10	Z10	X11	Y11	Z11	X12	Y12	Z12	X13	Y13	Z13	X14	Y14	Z14	X15	Y15	Z15	X16	Y16	Z16	X17	Y17	Z17	X18	Y18	Z18	X19	Y19	Z19	X20	Y20	Z20	X21	Y21	Z21	X22	Y22	Z22	X23	Y23	Z23	X24	Y24	Z24	X25	Y25	Z25	X26	Y26	Z26	X27	Y27	Z27	X28	Y28	Z28	X29	Y29	Z29	X30	Y30	Z30	X31	Y31	Z31	X32	Y32	Z32	X33	Y33	Z33	X34	Y34	Z34	X35	Y35	Z35	X36	Y36	Z36	X37	Y37	Z37	X38	Y38	Z38	X39	Y39	Z39	X40	Y40	Z40	X41	Y41	Z41	X42	Y42	Z42	X43	Y43	Z43	X44	Y44	Z44
																																																																																																																																					
141	1.4	-455.6756	1676.36353	1453.48157	-427.01331	1685.34033	1563.21008	-556.97821	1607.29822	1477.48083	-528.86011	1614.98938	1594.30444	-559.2099	1431.25415	1506.12402	-600.99677	1140.62671	1503.43701	-415.10431	1363.8186	1501.12427	-376.34253	1205.77539	1491.29565	-615.54297	1237.79309	1579.71216	-477.1275	1399.75378	1342.95581	-520.04529	1220.24463	1253.33362	-547.64319	1073.34436	1251.47424	-529.4306	963.47223	1219.95898	-472.12418	834.68634	1231.1792	-527.07922	841.1745	1207.18896	-492.24747	762.50793	1196.55701	-477.15503	1388.34497	1652.94092	-515.68866	1185.3407	1755.28784	-498.00784	1060.84241	1758.69983	-442.9523	952.00562	1785.04578	-337.27347	859.7818	1761.93506	-379.31311	848.1153	1800.78748	-323.53726	782.71582	1796.24329	-434.65781	933.7959	1388.69556	-434.66251	927.52148	1605.36035	-620.80322	945.03705	1439.10266	-619.8064	946.71552	1584.2522	-397.66907	615.94025	1310.11975	-366.71796	485.88361	1326.39697	-372.62662	301.43082	1313.55945	-331.34363	82.00274	1355.55688	-358.08908	41.56292	1414.58423	-187.36469	79.52934	1330.57495	-510.22363	597.52026	1650.61829	-514.29718	438.93213	1620.88831	-583.21625	275.32669	1624.88306	-625.63367	73.46396	1568.99951	-677.68115	38.15714	1518.67249	-486.50266	32.80791	1563.5686	-449.32281	1715.41382	1543.95813	1973.03027	1023.98224	-3102.052	2012.51904	1021.98383	-3140.78613	NaN	NaN	NaN	NaN	NaN	NaN
142	1.41	-449.69928	1675.74854	1452.1748	-420.94183	1684.84412	1562.05432	-550.91479	1606.76746	1476.28333	-522.84833	1614.48828	1593.1095	-553.24707	1430.66833	1505.17517	-595.112	1140.03381	1502.67993	-409.29495	1363.21387	1500.0769	-370.45084	1205.21143	1490.40576	-609.65192	1237.27478	1578.92969	-471.39206	1399.04602	1341.93372	-514.51727	1219.58545	1252.41931	-542.09467	1072.75574	1250.58838	-523.87469	962.8186	1218.98413	-466.69247	834.00378	1229.83484	-521.76343	840.5047	1206.10608	-487.03403	762.02789	1195.46387	-471.25876	1387.89941	1651.84436	-509.65076	1184.91455	1754.37463	-491.83722	1060.4502	1757.86157	-436.84311	951.617	1784.34253	-331.23401	859.28027	1761.23779	-373.26593	847.71021	1800.10352	-317.61859	782.21204	1795.58313	-428.58417	933.0838	1388.17725	-428.8981	927.03046	1604.94019	-614.75745	944.45868	1438.46057	-614.40454	946.81195	1583.68091	-393.05484	614.78741	1309.62842	-361.84412	485.10651	1326.0282	-363.57874	300.72449	1312.71814	-317.06888	82.41555	1354.57849	-343.11859	41.16527	1413.24158	-172.60043	82.91268	1330.5752	-506.21664	597.28137	1650.31458	-511.32867	438.55551	1620.63843	-581.38776	275.57977	1624.81262	-625.55627	73.94342	1568.99841	-677.01074	38.53685	1518.77698	-486.39764	32.76371	1563.51941	-443.25897	1714.86853	1542.7644	1973.0708	1023.43787	-3101.96948	2012.48474	1022.10419	-3140.83325	NaN	NaN	NaN	NaN	NaN	NaN
143	1.42	-443.64737	1675.13269	1450.81482	-414.96075	1684.23083	1560.72742	-544.87823	1606.17078	1474.94287	-516.83691	1613.93787	1591.82056	-547.45532	1430.05835	1504.01245	-589.23071	1139.47754	1501.84277	-403.40662	1362.65405	1498.95679	-364.52353	1204.62183	1489.4248	-603.78156	1236.77893	1578.05481	-465.69168	1398.3656	1340.83228	-509.07346	1218.8927	1251.55969	-536.34052	1072.09668	1249.56396	-518.16895	962.15759	1217.95593	-461.07623	833.27368	1228.6355	-516.13409	839.8078	1204.93982	-481.42004	761.24622	1194.13379	-465.33731	1387.40625	1650.77234	-503.64542	1184.45496	1753.4187	-485.77585	1060.00781	1756.94885	-430.84848	951.22351	1783.49878	-325.32404	858.67993	1760.45605	-367.4415	847.2207	1799.3468	-311.83411	781.55579	1794.87964	-422.12567	932.36292	1387.36426	-423.05814	926.53882	1604.50842	-608.69769	943.88013	1437.63977	-608.49091	946.40253	1582.81018	-388.16684	613.72363	1309.04126	-356.81863	484.3353	1325.60864	-354.84094	300.09879	1311.92102	-303.52161	82.52433	1353.526	-329.04962	40.93064	1412.07068	-158.87576	85.91971	1330.40051	-502.15533	597.10223	1649.95508	-508.20013	438.23459	1620.34985	-579.48706	275.96063	1624.71521	-625.09595	74.26325	1568.70154	-676.79816	39.14479	1518.47778	-486.28967	32.76088	1563.51062	-437.12418	1714.3158	1541.48352	1973.07422	1023.59174	-3101.98804	2012.54187	1022.01129	-3140.7959	NaN	NaN	NaN	NaN	NaN	NaN
144	1.43	-437.65213	1674.46997	1449.49011	-408.95551	1683.65198	1559.33704	-538.77765	1605.48547	1473.58093	-510.84744	1613.40955	1590.42566	-541.59918	1429.41211	1502.76526	-583.15033	1138.74597	1500.80859	-397.42908	1362.09534	1497.77454	-358.60019	1204.03223	1488.33521	-597.78699	1236.21399	1577.03796	-459.86734	1397.68359	1339.58337	-503.14093	1218.06653	1250.33667	-530.51477	1071.27124	1248.48145	-512.40564	961.41101	1216.73389	-455.40652	832.41742	1227.30798	-510.38693	839.14191	1203.82117	-475.63531	760.61475	1192.74243	-459.41492	1386.89453	1649.56702	-497.61969	1184.01074	1752.35376	-479.75183	1059.57202	1755.92395	-424.93909	950.70886	1782.58362	-319.55801	857.98322	1759.62	-361.67764	846.64313	1798.52917	-306.3017	780.83771	1794.06323	-416.09839	931.63977	1387.15247	-417.17838	926.01801	1604.01172	-602.61273	943.34888	1436.76843	-602.47235	946.0177	1581.91406	-382.88333	612.78741	1308.25195	-351.5004	483.52951	1325.16797	-346.54529	299.49954	1311.0553	-291.10654	82.7343	1352.72363	-316.15573	40.71042	1411.12378	-146.31126	88.3214	1330.01074	-498.02292	596.88348	1649.56433	-504.93866	438.0141	1620.11816	-577.51031	276.15689	1624.48071	-624.97546	74.78407	1568.75769	-677.33539	40.67284	1518.31812	-486.15854	32.73651	1563.51318	-431.12115	1713.70093	1540.08838	1973.17346	1023.42053	-3101.94922	2012.54089	1022.01819	-3140.64331	NaN	NaN	NaN	NaN	NaN	NaN
145	1.44	-431.52597	1673.87402	1447.98181	-402.99207	1683.04846	1557.88489	-532.8476	1604.90112	1472.00635	-504.91693	1612.79187	1588.87842	-535.66089	1428.75806	1501.37378	-577.15118	1138.15601	1499.77148	-391.56796	1361.46301	1496.37988	-352.60623	1203.47693	1487.14819	-591.87634	1235.67383	1575.90149	-454.0582	1396.98645	1338.23621	-497.26764	1217.27808	1249.11829	-524.27887	1070.66589	1247.31348	-506.48224	960.64917	1215.55396	-449.34506	831.77185	1226.28552	-504.30573	838.41022	1202.53601	-469.63507	759.88989	1191.36938	-453.41339	1386.38257	1648.23254	-491.63611	1183.50647	1751.15259	-473.76486	1059.09875	1754.75134	-419.15555	950.1814	1781.54858	-313.9353	857.22528	1758.71338	-356.16281	845.95422	1797.59131	-300.9165	780.02429	1793.17017	-409.81998	930.93097	1386.53625	-411.224	925.52374	1603.44702	-596.33832	942.61731	1435.76978	-596.24194	945.38635	1580.83545	-377.27332	611.89093	1307.35583	-346.01749	482.86221	1324.77478	-338.75671	298.9628	1310.20837	-280.03964	82.90301	1351.93311	-304.40427	40.58099	1410.23169	-135.20361	90.25891	1329.35742	-493.79706	596.60278	1649.06189	-501.57065	437.77264	1619.90369	-575.51587	276.44449	1624.36914	-624.46149	75.47506	1568.76501	-676.62787	40.96526	1518.43164	-486.15771	32.67855	1563.50647	-425.24707	1713.07776	1538.5365	1973.16248	1023.48248	-3101.81226	2012.55762	1022.09827	-3140.71045	NaN	NaN	NaN	NaN	NaN	NaN
146	1.45	-425.52249	1673.28406	1446.44653	-397.06924	1682.49219	1556.32312	-526.82642	1604.26111	1470.33411	-499.00247	1612.16699	1587.25159	-529.67316	1428.12158	1499.9292	-571.01202	1137.45398	1498.55823	-385.56882	1360.83545	1494.87366	-346.4895	1202.89111	1485.89819	-585.78186	1235.09021	1574.60681	-448.19739	1396.23645	1336.7439	-491.30084	1216.40771	1247.76721	-518.33173	1069.75574	1246.07703	-500.33652	959.80127	1214.29077	-443.16071	830.90155	1224.64917	-498.20798	837.56543	1201.39282	-463.40839	759.18854	1189.87183	-447.37701	1385.86609	1646.7533	-485.64648	1183.05347	1749.87085	-467.80997	1058.64221	1753.54846	-413.49918	949.67798	1780.44824	-308.48474	856.46399	1757.82959	-350.66946	845.33063	1796.63452	-295.74237	779.14392	1792.20227	-403.19965	930.18121	1385.60242	-405.22311	925.0257	1602.81958	-590.09259	942.01898	1434.73145	-590.19739	945.01331	1579.6897	-371.27573	611.15576	1306.4165	-340.35889	482.20599	1324.33496	-331.42679	298.32669	1309.53479	-269.90186	82.83129	1350.99023	-293.96677	40.31261	1409.44324	-125.04802	91.60715	1328.44067	-489.47021	596.49799	1648.67883	-498.25342	437.3909	1619.58984	-573.59637	276.76849	1624.16772	-624.15851	76.07075	1568.77759	-676.17401	41.66837	1518.3667	-486.11258	32.67005	1563.50659	-419.32489	1712.50354	1536.97144	1973.12671	1023.50104	-3101.88281	2012.49426	1021.99811	-3140.69092	NaN	NaN	NaN	NaN	NaN	NaN
147	1.46	-419.59195	1672.67358	1444.67517	-391.17059	1681.91895	1554.62549	-520.85657	1603.64941	1468.57983	-493.0983	1611.56274	1585.50671	-523.60632	1427.49548	1498.36255	-564.85864	1136.80054	1497.26416	-379.52594	1360.25586	1493.36157	-340.37323	1202.33496	1484.50476	-579.73376	1234.52673	1573.18176	-442.25214	1395.55237	1335.16455	-485.43307	1215.5708	1246.50085	-512.03589	1068.91467	1244.73242	-494.17108	959.00476	1212.93872	-436.79623	830.12311	1223.54883	-491.88965	836.72577	1200.11182	-456.95517	758.50848	1188.40393	-441.32513	1385.39758	1645.23804	-479.64203	1182.62317	1748.4447	-461.91431	1058.25012	1752.16809	-407.89429	949.14056	1779.24573	-303.19098	855.63623	1756.78125	-345.40884	844.59705	1795.53467	-290.73001	778.21588	1791.18811	-396.68106	929.50269	1384.86462	-399.14005	924.52075	1602.12805	-583.74921	941.36206	1433.59814	-584.70007	945.24457	1578.86719	-364.87814	610.50641	1305.73474	-334.38037	481.58044	1323.85681	-324.46869	297.69141	1308.86401	-261.259	82.67422	1350.29626	-284.76401	39.98012	1408.74512	-116.39072	92.33074	1327.41858	-485.0231	596.3576	1648.19678	-494.80524	437.12708	1619.33521	-571.61072	277.20526	1623.98718	-623.84503	76.67815	1568.76941	-676.27753	43.14388	1518.45557	-486.0116	32.67532	1563.56909	-413.35367	1711.95679	1535.2876	1973.16809	1023.46094	-3101.88989	2012.54138	1022.0257	-3140.76538	NaN	NaN	NaN	NaN	NaN	NaN
